<svg width="104" height="75" fill="none" xmlns="http://www.w3.org/2000/svg"><path d="M58.188 27.246c4.83-4.442 10.824-9.958 11.648-14.865.578-3.47.014-6.332-1.68-8.504C66.447 1.683 63.85.432 60.209.05a9.787 9.787 0 00-.986-.051c-2.577 0-5.175.937-7.172 2.522C50.057.937 47.456 0 44.886 0c-.32 0-.637.016-.99.05-3.64.382-6.24 1.633-7.948 3.827-1.694 2.172-2.258 5.034-1.68 8.503.825 4.91 6.819 10.424 11.648 14.866 0 0 2.41 2.365 3.133 2.972.546.457 1.725 1.375 3.005 1.375 1.278 0 2.46-.918 3.002-1.375.723-.607 3.133-2.972 3.133-2.972z" fill="#EE5253"/><path d="M43.528 34.889c-.263-.198-2.347-1.739-8.127-2.115-.318-.026-.64-.246-.921-.43-.07-.044-.138-.09-.207-.136-.292-.195-.578-.404-.799-.66-.441-.517-.941-.952-1.362-1.526-2.809-3.83-5.564-4.597-5.976-4.751-.547-.257-.92-.332-1.042-.698-.05-.17-.526-4.618-.611-5.365-.237-2.145-.472-3.734-1.729-4.165-.324-.113-.554-.076-.793.174-.287.294-.456 1.851-.539 2.836 0 0-.473 5.756-.417 7.751.055 1.995 3.587 9.967 5.479 11.827 1.892 1.86 10.65 6.727 10.65 6.727.315.257 2.065 1.573 2.065 3.3v1.946s-.25 1.801 1.769 1.801c2.018 0 4.818.008 6.811.008 1.993 0 1.604-1.76 1.606-2.376l.002-.955v-.105c.024-.636.135-1.268.212-1.9.221-.723.045-2.09-.059-2.62-1.184-5.16-5.538-8.207-6.012-8.568zm39.153-16.836c-.082-.985-.251-2.542-.538-2.836-.24-.25-.47-.287-.794-.175-1.257.432-1.492 2.021-1.728 4.166-.085.747-.562 5.195-.612 5.365-.122.366-.495.441-1.042.698-.412.154-3.167.921-5.976 4.751-.42.574-.92 1.009-1.362 1.525-.22.257-.507.466-.798.66l-.207.137c-.282.184-.604.404-.921.43-5.78.377-7.864 1.917-8.127 2.115-.474.36-4.83 3.408-6.013 8.568-.104.53-.28 1.897-.059 2.62.078.632.188 1.263.212 1.9v.105l.002.955c.002.616-.387 2.376 1.606 2.376s4.793-.008 6.812-.008c2.018 0 1.769-1.801 1.769-1.801v-1.946c0-1.727 1.75-3.044 2.064-3.3 0 0 9.445-5.324 10.65-6.727 1.206-1.404 5.249-9.88 5.48-11.827.23-1.946-.418-7.75-.418-7.75z" fill="#DEC8AE"/><path d="M16.162 53.6V69h-3.564v-6.314H5.602V69H2.038V53.6h3.564v6.072h6.996V53.6h3.564zm14.995 9.526c0 .044-.021.352-.066.924h-8.954a2.789 2.789 0 001.145 1.738c.6.425 1.349.638 2.244.638.616 0 1.158-.088 1.628-.264a4.09 4.09 0 001.341-.88l1.826 1.98c-1.114 1.276-2.742 1.914-4.884 1.914-1.334 0-2.515-.257-3.542-.77-1.026-.528-1.818-1.254-2.375-2.178-.558-.924-.837-1.973-.837-3.146 0-1.159.272-2.2.814-3.124a5.775 5.775 0 012.267-2.178c.968-.528 2.046-.792 3.233-.792 1.16 0 2.208.25 3.146.748a5.369 5.369 0 012.2 2.156c.543.924.814 2.002.814 3.234zm-6.137-3.542c-.778 0-1.43.22-1.959.66-.527.44-.85 1.041-.968 1.804h5.83c-.117-.748-.44-1.342-.967-1.782-.529-.455-1.174-.682-1.936-.682zm8.422-6.908h3.432V69h-3.432V52.676zm13.614 4.312c1.1 0 2.097.257 2.992.77a5.345 5.345 0 012.134 2.134c.513.91.77 1.973.77 3.19 0 1.217-.257 2.288-.77 3.212a5.526 5.526 0 01-2.134 2.134c-.895.499-1.892.748-2.992.748-1.511 0-2.7-.477-3.564-1.43v5.522H40.06V57.164h3.278v1.364c.85-1.027 2.09-1.54 3.718-1.54zm-.594 9.372c.88 0 1.598-.293 2.156-.88.572-.601.858-1.4.858-2.398 0-.997-.286-1.79-.858-2.376-.558-.601-1.276-.902-2.156-.902-.88 0-1.606.3-2.178.902-.558.587-.836 1.379-.836 2.376 0 .997.278 1.797.836 2.398.572.587 1.298.88 2.178.88zM69.505 69l-.022-9.24-4.532 7.612h-1.606l-4.51-7.414V69h-3.344V53.6h2.948l5.764 9.57 5.676-9.57h2.926l.044 15.4h-3.344zm18.35-5.874c0 .044-.022.352-.066.924h-8.954a2.788 2.788 0 001.144 1.738c.601.425 1.35.638 2.244.638.616 0 1.158-.088 1.628-.264a4.09 4.09 0 001.342-.88l1.826 1.98c-1.115 1.276-2.743 1.914-4.884 1.914-1.335 0-2.516-.257-3.542-.77-1.027-.528-1.819-1.254-2.376-2.178-.558-.924-.836-1.973-.836-3.146 0-1.159.271-2.2.814-3.124a5.775 5.775 0 012.266-2.178c.968-.528 2.046-.792 3.234-.792 1.158 0 2.207.25 3.146.748a5.37 5.37 0 012.2 2.156c.542.924.814 2.002.814 3.234zm-6.138-3.542c-.778 0-1.43.22-1.958.66-.528.44-.85 1.041-.968 1.804h5.83c-.118-.748-.44-1.342-.968-1.782-.528-.455-1.174-.682-1.936-.682zm20.479-6.908V69h-3.278v-1.364c-.851 1.027-2.083 1.54-3.696 1.54-1.115 0-2.127-.25-3.036-.748a5.376 5.376 0 01-2.112-2.134c-.514-.924-.77-1.995-.77-3.212s.256-2.288.77-3.212a5.376 5.376 0 012.112-2.134c.909-.499 1.921-.748 3.036-.748 1.51 0 2.691.477 3.542 1.43v-5.742h3.432zm-6.38 13.684c.865 0 1.584-.293 2.156-.88.572-.601.858-1.4.858-2.398 0-.997-.286-1.79-.858-2.376-.572-.601-1.291-.902-2.156-.902-.88 0-1.606.3-2.178.902-.572.587-.858 1.379-.858 2.376 0 .997.286 1.797.858 2.398.572.587 1.298.88 2.178.88z" fill="#fff"/></svg>