<svg width="34" height="34" fill="none" xmlns="http://www.w3.org/2000/svg"><g clip-path="url(#clip0)"><path d="M33.847 27.1l-.17-.51c-.4-1.19-1.714-2.433-2.92-2.76l-4.468-1.22c-1.21-.33-2.939.113-3.825.999l-1.617 1.616A17.148 17.148 0 018.78 13.158l1.617-1.617c.886-.886 1.33-2.612 1-3.823l-1.218-4.47C9.848 2.039 8.604.726 7.415.329l-.51-.171c-1.192-.397-2.89.004-3.777.89L.71 3.469c-.432.43-.708 1.659-.708 1.663a28.56 28.56 0 008.357 20.506 28.57 28.57 0 0020.442 8.36c.04 0 1.305-.272 1.737-.702l2.418-2.418c.886-.886 1.287-2.585.891-3.777z" fill="#EE5253"/></g><defs><clipPath id="clip0"><path fill="#fff" d="M0 0h34v34H0z"/></clipPath></defs></svg>