<svg width="74" height="74" fill="none" xmlns="http://www.w3.org/2000/svg"><path d="M37 74c20.434 0 37-16.566 37-37S57.434 0 37 0 0 16.566 0 37s16.566 37 37 37z" fill="#D3D3D3"/><path d="M37 68.933c17.636 0 31.933-14.297 31.933-31.933C68.933 19.363 54.636 5.066 37 5.066S5.067 19.363 5.067 37c0 17.636 14.297 31.933 31.933 31.933z" fill="#fff"/><path d="M37 63.818c14.811 0 26.818-12.007 26.818-26.818 0-14.811-12.007-26.818-26.818-26.818-14.811 0-26.818 12.007-26.818 26.818 0 14.81 12.007 26.818 26.818 26.818z" fill="url(#paint0_linear)"/><path d="M32.636 53.819h6.95V37h4.636l.615-5.795h-5.25l.008-2.902c0-1.51.143-2.322 2.312-2.322h2.898v-5.8h-4.637c-5.57 0-7.53 2.812-7.53 7.541v3.48h-3.47V37h3.47v16.819h-.002z" fill="#fff"/><defs><linearGradient id="paint0_linear" x1="37" y1="63.818" x2="37" y2="10.182" gradientUnits="userSpaceOnUse"><stop stop-color="#EE5253"/><stop offset="1" stop-color="#FB0000"/></linearGradient></defs></svg>