<svg width="74" height="74" fill="none" xmlns="http://www.w3.org/2000/svg"><path d="M37 74c20.434 0 37-16.566 37-37S57.434 0 37 0 0 16.566 0 37s16.566 37 37 37z" fill="#D3D3D3"/><path d="M37 68.933c17.636 0 31.933-14.297 31.933-31.933C68.933 19.363 54.636 5.066 37 5.066S5.067 19.363 5.067 37c0 17.636 14.297 31.933 31.933 31.933z" fill="#fff"/><path d="M37 63.818c14.811 0 26.818-12.007 26.818-26.818 0-14.811-12.007-26.818-26.818-26.818-14.811 0-26.818 12.007-26.818 26.818 0 14.81 12.007 26.818 26.818 26.818z" fill="url(#paint0_linear)"/><path d="M48.59 21.545H25.41c-2.183 0-3.864 1.682-3.864 3.865v23.18c0 2.18 1.68 3.864 3.864 3.864h23.18c2.18 0 3.864-1.683 3.864-3.864V25.41c0-2.183-1.683-3.865-3.864-3.865zM37.023 30.93c3.427 0 6.207 2.692 6.207 6.013 0 3.32-2.777 6.013-6.207 6.013-3.425 0-6.204-2.694-6.204-6.013 0-3.32 2.78-6.012 6.204-6.012zM48.59 47.624c0 .677-.289.966-.966.966h-21.25c-.675 0-.967-.289-.967-.967v-13.52l2.408.522a8.98 8.98 0 00-.398 2.652c0 5.136 4.301 9.306 9.604 9.306 5.305 0 9.604-4.167 9.604-9.306 0-.922-.142-1.81-.398-2.652l2.36-.523v13.522h.003zm0-17.386a.966.966 0 01-.966.967h-3.865a.966.966 0 01-.966-.967v-3.864c0-.534.432-.967.966-.967h3.865c.534 0 .966.433.966.967v3.864z" fill="#fff"/><defs><linearGradient id="paint0_linear" x1="37" y1="63.818" x2="37" y2="10.182" gradientUnits="userSpaceOnUse"><stop stop-color="#EE5253"/><stop offset="1" stop-color="#FB0000"/></linearGradient></defs></svg>