<svg width="47" height="47" fill="none" xmlns="http://www.w3.org/2000/svg"><g clip-path="url(#clip0)"><path d="M39.652 16.446C39.652 7.363 32.289 0 23.206 0 14.124 0 6.761 7.363 6.761 16.446c0 1.775.285 3.484.806 5.086 0 0 1.384 6.212 15.536 24.742 8.103-10.611 12.018-17.178 13.885-20.857a16.377 16.377 0 002.664-8.971zM23.024 27.044c-5.752 0-10.416-4.663-10.416-10.416 0-5.752 4.664-10.415 10.416-10.415 5.752 0 10.416 4.663 10.416 10.415-.001 5.753-4.664 10.416-10.416 10.416z" fill="#EE5253"/><path d="M23.206 46.412l-.105-.14-.106.14h.211z" fill="#5C5C5C"/></g><defs><clipPath id="clip0"><path fill="#fff" d="M0 0h46.412v46.412H0z"/></clipPath></defs></svg>