<svg width="157" height="145" fill="none" xmlns="http://www.w3.org/2000/svg"><path d="M92.19 56.554c10.024-9.22 22.467-20.67 24.178-30.856 1.199-7.202.029-13.142-3.486-17.652-3.55-4.552-8.941-7.15-16.499-7.94A20.708 20.708 0 0094.337 0c-5.35 0-10.742 1.945-14.887 5.234C75.312 1.944 69.915 0 64.577 0c-.664 0-1.322.033-2.054.105-7.557.791-12.954 3.389-16.498 7.941-3.515 4.51-4.686 10.45-3.487 17.652C44.25 35.89 56.692 47.335 66.716 56.554c0 0 5.002 4.91 6.503 6.168 1.133.948 3.58 2.855 6.237 2.855 2.652 0 5.104-1.907 6.23-2.855 1.502-1.259 6.505-6.168 6.505-6.168z" fill="#EE5253"/><path d="M61.76 72.418c-.545-.41-4.87-3.608-16.869-4.39-.658-.053-1.326-.51-1.912-.891a54.516 54.516 0 01-.43-.284c-.604-.404-1.198-.838-1.657-1.37-.915-1.073-1.954-1.975-2.827-3.166-5.83-7.95-11.55-9.543-12.403-9.862-1.136-.533-1.911-.69-2.164-1.45-.103-.352-1.093-9.585-1.269-11.135-.491-4.452-.98-7.75-3.588-8.646-.672-.235-1.15-.158-1.647.361-.596.611-.946 3.843-1.117 5.888 0 0-.983 11.946-.868 16.088.116 4.142 7.446 20.688 11.374 24.549 3.928 3.86 22.106 13.962 22.106 13.962.653.534 4.286 3.265 4.286 6.85v4.04s-.518 3.739 3.671 3.739c4.19 0 10.002.016 14.139.016 4.137 0 3.33-3.653 3.333-4.932l.005-1.982v-.218c.05-1.321.28-2.632.44-3.943.458-1.501.093-4.338-.122-5.439-2.458-10.71-11.497-17.036-12.481-17.785zm81.27-34.945c-.171-2.045-.522-5.277-1.117-5.888-.497-.519-.975-.595-1.648-.362-2.609.896-3.096 4.195-3.588 8.647-.176 1.55-1.166 10.783-1.268 11.136-.253.76-1.029.915-2.164 1.449-.855.319-6.573 1.911-12.404 9.862-.873 1.191-1.911 2.093-2.827 3.165-.458.532-1.053.967-1.657 1.371l-.43.284c-.585.38-1.253.838-1.912.89-11.998.783-16.323 3.981-16.869 4.391-.984.749-10.023 7.074-12.48 17.785-.215 1.1-.58 3.937-.123 5.439.161 1.31.39 2.621.44 3.942v.218l.006 1.982c.003 1.28-.804 4.933 3.333 4.933 4.136 0 9.949-.017 14.138-.017 4.19 0 3.672-3.738 3.672-3.738v-4.04c0-3.585 3.632-6.317 4.286-6.85 0 0 19.604-11.05 22.105-13.963 2.502-2.912 10.895-20.509 11.374-24.548.479-4.04-.867-16.088-.867-16.088z" fill="#DEC8AE"/><path d="M26.372 115.6V138h-5.184v-9.184H11.012V138H5.828v-22.4h5.184v8.832h10.176V115.6h5.184zm21.812 13.856c0 .064-.032.512-.096 1.344H35.064c.234 1.067.789 1.909 1.664 2.528.874.619 1.962.928 3.264.928.896 0 1.685-.128 2.368-.384a5.94 5.94 0 001.952-1.28l2.656 2.88c-1.622 1.856-3.99 2.784-7.104 2.784-1.942 0-3.659-.373-5.152-1.12-1.494-.768-2.646-1.824-3.456-3.168-.811-1.344-1.216-2.869-1.216-4.576 0-1.685.394-3.2 1.184-4.544a8.406 8.406 0 013.296-3.168c1.408-.768 2.976-1.152 4.704-1.152 1.685 0 3.21.363 4.576 1.088a7.81 7.81 0 013.2 3.136c.789 1.344 1.184 2.912 1.184 4.704zm-8.928-5.152c-1.131 0-2.08.32-2.848.96-.768.64-1.238 1.515-1.408 2.624h8.48c-.171-1.088-.64-1.952-1.408-2.592-.768-.661-1.707-.992-2.816-.992zm12.251-10.048H56.5V138h-4.992v-23.744zm19.801 6.272c1.6 0 3.05.373 4.352 1.12a7.76 7.76 0 013.104 3.104c.747 1.323 1.12 2.869 1.12 4.64 0 1.771-.373 3.328-1.12 4.672a8.037 8.037 0 01-3.104 3.104c-1.301.725-2.752 1.088-4.352 1.088-2.197 0-3.925-.693-5.184-2.08v8.032h-4.992v-23.424H65.9v1.984c1.237-1.493 3.04-2.24 5.408-2.24zm-.864 13.632c1.28 0 2.325-.427 3.136-1.28.832-.875 1.248-2.037 1.248-3.488s-.416-2.603-1.248-3.456c-.81-.875-1.856-1.312-3.136-1.312s-2.336.437-3.168 1.312c-.81.853-1.216 2.005-1.216 3.456s.406 2.613 1.216 3.488c.832.853 1.888 1.28 3.168 1.28zm33.518 3.84l-.032-13.44-6.592 11.072h-2.336l-6.56-10.784V138h-4.864v-22.4h4.288l8.384 13.92 8.256-13.92h4.256l.064 22.4h-4.864zm26.69-8.544c0 .064-.032.512-.096 1.344h-13.024c.235 1.067.79 1.909 1.664 2.528.875.619 1.963.928 3.264.928.896 0 1.686-.128 2.368-.384a5.938 5.938 0 001.952-1.28l2.656 2.88c-1.621 1.856-3.989 2.784-7.104 2.784-1.941 0-3.658-.373-5.152-1.12-1.493-.768-2.645-1.824-3.456-3.168-.81-1.344-1.216-2.869-1.216-4.576 0-1.685.395-3.2 1.184-4.544a8.412 8.412 0 013.296-3.168c1.408-.768 2.976-1.152 4.704-1.152 1.686 0 3.211.363 4.576 1.088a7.806 7.806 0 013.2 3.136c.79 1.344 1.184 2.912 1.184 4.704zm-8.928-5.152c-1.13 0-2.08.32-2.848.96-.768.64-1.237 1.515-1.408 2.624h8.48c-.17-1.088-.64-1.952-1.408-2.592-.768-.661-1.706-.992-2.816-.992zm29.788-10.048V138h-4.768v-1.984c-1.237 1.493-3.029 2.24-5.376 2.24-1.621 0-3.093-.363-4.416-1.088-1.301-.725-2.325-1.76-3.072-3.104-.747-1.344-1.12-2.901-1.12-4.672s.373-3.328 1.12-4.672c.747-1.344 1.771-2.379 3.072-3.104 1.323-.725 2.795-1.088 4.416-1.088 2.197 0 3.915.693 5.152 2.08v-8.352h4.992zm-9.28 19.904c1.259 0 2.304-.427 3.136-1.28.832-.875 1.248-2.037 1.248-3.488s-.416-2.603-1.248-3.456c-.832-.875-1.877-1.312-3.136-1.312-1.28 0-2.336.437-3.168 1.312-.832.853-1.248 2.005-1.248 3.456s.416 2.613 1.248 3.488c.832.853 1.888 1.28 3.168 1.28z" fill="#fff"/></svg>