<svg width="39" height="39" fill="none" xmlns="http://www.w3.org/2000/svg"><g clip-path="url(#clip0)"><path d="M38.825 31.085l-.195-.585c-.46-1.366-1.966-2.791-3.35-3.167l-5.125-1.4c-1.389-.378-3.371.13-4.388 1.147l-1.854 1.855A19.67 19.67 0 0110.071 15.09l1.854-1.855c1.017-1.016 1.525-2.996 1.147-4.385l-1.397-5.126C11.297 2.338 9.869.83 8.505.376L7.92.179C6.554-.275 4.605.185 3.588 1.201L.814 3.978C.32 4.47.002 5.88.002 5.886a32.76 32.76 0 009.586 23.521 32.77 32.77 0 0023.449 9.589c.046 0 1.496-.312 1.992-.805l2.774-2.774c1.016-1.016 1.476-2.965 1.022-4.332z" fill="#EE5253"/></g><defs><clipPath id="clip0"><path fill="#fff" d="M0 0h39v39H0z"/></clipPath></defs></svg>