<svg width="74" height="74" fill="none" xmlns="http://www.w3.org/2000/svg"><path d="M37 74c20.434 0 37-16.566 37-37S57.434 0 37 0 0 16.566 0 37s16.566 37 37 37z" fill="#D3D3D3"/><path d="M37 68.933c17.636 0 31.933-14.297 31.933-31.933C68.933 19.363 54.636 5.066 37 5.066S5.067 19.363 5.067 37c0 17.636 14.297 31.933 31.933 31.933z" fill="#fff"/><path d="M37 63.818c14.811 0 26.818-12.007 26.818-26.818 0-14.811-12.007-26.818-26.818-26.818-14.811 0-26.818 12.007-26.818 26.818 0 14.81 12.007 26.818 26.818 26.818z" fill="url(#paint0_linear)"/><path d="M36.866 36.517c-.883-.817-1.864-1.964-2.29-2.977-.064-.132-.196-.458 0-.719.394-.523.458-.557.884-1.047.294-.361.523-.687.425-.983l-1.47-3.827c-.132-.262-.523-.294-.98-.329-.394 0-.817 0-1.113.065-.655.229-1.996 1.996-2.158 3.272-.36 2.78 2.158 6.477 4.676 8.77 2.518 2.323 6.41 4.515 9.158 3.893 1.274-.293 2.911-1.766 3.04-2.453.065-.294.033-.72-.032-1.113-.032-.457-.132-.783-.393-.915l-3.335-1.538c-.296-.164-.59-.032-.883.328-.358.49-.525.687-.948 1.21-.229.293-.393.49-.655.522-.296.065-.686-.097-.751-.097-1.05-.36-2.26-1.244-3.175-2.063zM25.879 48.261l1.896-4.81a13.83 13.83 0 01-3.369-9.063c0-7.657 6.214-13.84 13.866-13.84 7.652 0 13.833 6.183 13.833 13.84s-6.181 13.873-13.833 13.873c-3.073 0-5.888-.983-8.175-2.683l-4.218 2.683zm-2.324-4.71L20.94 54.02l9.351-4.255a17.226 17.226 0 007.98 1.963c9.55 0 17.3-7.756 17.3-17.341 0-9.553-7.75-17.31-17.3-17.31-9.582 0-17.331 7.754-17.331 17.307 0 3.374.98 6.517 2.615 9.167z" fill="#fff"/><defs><linearGradient id="paint0_linear" x1="37" y1="63.818" x2="37" y2="10.182" gradientUnits="userSpaceOnUse"><stop stop-color="#EE5253"/><stop offset="1" stop-color="#FB0000"/></linearGradient></defs></svg>