<svg width="30" height="30" fill="none" xmlns="http://www.w3.org/2000/svg"><g clip-path="url(#clip0)"><path d="M3.75 4.688V.938a.937.937 0 111.876 0v3.75a.937.937 0 11-1.875 0zm15.939.937c.518 0 .937-.42.937-.937V.938a.937.937 0 10-1.875 0v3.75c0 .518.42.937.938.937zM30 22.5a7.5 7.5 0 11-15 0 7.5 7.5 0 0115 0zm-1.875 0a5.631 5.631 0 00-5.625-5.625 5.631 5.631 0 00-5.625 5.625 5.631 5.631 0 005.625 5.625 5.631 5.631 0 005.625-5.625zM7.501 11.25h-3.75V15H7.5v-3.75zm-3.75 9.375H7.5v-3.75H3.75v3.75zM9.376 15h3.75v-3.75h-3.75V15zm0 5.625h3.75v-3.75h-3.75v3.75zm-7.5 1.688V9.375h20.625v3.75h1.875V5.812c0-1.14-.908-2.062-2.03-2.062h-.783v.938c0 1.032-.84 1.875-1.874 1.875a1.878 1.878 0 01-1.875-1.875V3.75H6.564v.938a1.878 1.878 0 01-1.875 1.875 1.878 1.878 0 01-1.875-1.875V3.75h-.781C.91 3.75 0 4.673 0 5.812v16.502c0 1.135.91 2.061 2.032 2.061h11.093V22.5H2.033c-.085 0-.157-.088-.157-.187zM18.751 15v-3.75H15V15h3.75zm6.562 7.5h-2.812v-2.813a.937.937 0 10-1.875 0v3.75c0 .519.42.938.937.938h3.75a.937.937 0 100-1.875z" fill="#EE5253"/></g><defs><clipPath id="clip0"><path fill="#fff" d="M0 0h30v30H0z"/></clipPath></defs></svg>