<svg width="185" height="283" fill="none" xmlns="http://www.w3.org/2000/svg"><path d="M174.97 39.458H10.03a6.687 6.687 0 00-6.687 6.687v226.792a6.687 6.687 0 006.687 6.687h164.94a6.687 6.687 0 006.687-6.687V46.145a6.687 6.687 0 00-6.687-6.687z" fill="#fff"/><path d="M174.97 282.969H10.03A10.03 10.03 0 010 272.939V46.144a10.03 10.03 0 0110.03-10.03h164.94A10.03 10.03 0 01185 46.144V272.94a10.043 10.043 0 01-10.03 10.03zM10.03 42.803a3.343 3.343 0 00-3.343 3.344v226.792a3.343 3.343 0 003.343 3.343h164.94a3.342 3.342 0 003.343-3.343V46.144a3.343 3.343 0 00-3.343-3.343l-164.94.002z" fill="#5C5C5C"/><path d="M155.959 118.05h-16.474a6.686 6.686 0 00-6.686 6.687v16.473a6.686 6.686 0 006.686 6.687h16.474a6.687 6.687 0 006.687-6.687v-16.473a6.687 6.687 0 00-6.687-6.687zm0 51.822h-16.474a6.686 6.686 0 00-6.686 6.687v16.474a6.685 6.685 0 006.686 6.686h16.474a6.686 6.686 0 006.687-6.686v-16.474a6.687 6.687 0 00-6.687-6.687zm0 51.822h-16.474a6.686 6.686 0 00-6.686 6.687v16.474a6.686 6.686 0 006.686 6.687h16.474a6.687 6.687 0 006.687-6.687v-16.474a6.687 6.687 0 00-6.687-6.687z" fill="#EE5253"/><path d="M118.716 127.426H25.062a3.343 3.343 0 110-6.686h93.654a3.342 3.342 0 110 6.686zm0 17.781H25.062a3.343 3.343 0 110-6.687h93.654a3.342 3.342 0 110 6.687zm0 34.042H25.062a3.343 3.343 0 110-6.687h93.654a3.342 3.342 0 110 6.687zm0 17.78H25.062a3.343 3.343 0 110-6.687h93.654a3.343 3.343 0 010 6.687zm0 34.042H25.062a3.343 3.343 0 110-6.687h93.654a3.343 3.343 0 010 6.687zm0 17.78H25.062a3.343 3.343 0 110-6.686h93.654a3.342 3.342 0 110 6.686zm28.103-109.975a6.57 6.57 0 01-3.997-1.359l-1.025-.78a3.345 3.345 0 014.056-5.316l1.026.782 5.186-5.691a3.35 3.35 0 013.617-.85 3.334 3.334 0 011.872 1.746 3.355 3.355 0 01.089 2.558 3.356 3.356 0 01-.687 1.109l-5.325 5.704a6.569 6.569 0 01-4.812 2.097zm0 51.816a6.565 6.565 0 01-3.997-1.36l-1.025-.78a3.342 3.342 0 114.056-5.316l1.026.782 5.186-5.69a3.35 3.35 0 013.617-.851 3.35 3.35 0 011.872 1.746c.182.4.283.831.299 1.27.015.439-.057.877-.21 1.288a3.37 3.37 0 01-.687 1.11l-5.325 5.703a6.571 6.571 0 01-4.812 2.098zm0 51.829a6.565 6.565 0 01-3.997-1.36l-1.025-.78a3.342 3.342 0 114.056-5.316l1.026.782 5.186-5.69a3.35 3.35 0 013.617-.851 3.35 3.35 0 011.872 1.746c.182.4.283.832.299 1.27a3.35 3.35 0 01-.897 2.398l-5.325 5.703a6.571 6.571 0 01-4.812 2.098z" fill="#5C5C5C"/><path d="M136.96 33.254a8.619 8.619 0 00-8.214-4.382c-.386.031-.77.087-1.15.168a8.72 8.72 0 00-5.982 4.542.864.864 0 01-.569.47l-3.601.649a3.4 3.4 0 01-3.232-1.29 27.437 27.437 0 00-9.984-7.768 3.266 3.266 0 01-1.834-2.956l-.063-5.795c0-.026.005-.053.015-.077a.173.173 0 01.046-.064 6.977 6.977 0 002.21-8.13 6.979 6.979 0 00-7.223-4.336c-.251.024-.5.062-.747.114a6.816 6.816 0 00-5.013 4.304 6.99 6.99 0 001.148 6.983.181.181 0 01.038.156l-1.208 5.155a3.252 3.252 0 01-2.478 2.452 2.772 2.772 0 01-.199.036 26.618 26.618 0 00-4.028.905 26.95 26.95 0 00-7.839 3.905 3.12 3.12 0 01-1.179.52 3.299 3.299 0 01-2.333-.386l-4.472-2.61a.344.344 0 01-.149-.257 7.317 7.317 0 00-13.906-2.15 7.815 7.815 0 001.266 8.004 7.355 7.355 0 006.506 2.273.303.303 0 01.254.08l3.598 3.482a3.18 3.18 0 01.827 3.415 27.139 27.139 0 00-1.815 9.455 3.159 3.159 0 01-1.828 2.92l-6.726 2.986-.058.016a.457.457 0 01-.341-.034 7.735 7.735 0 00-5.314-.793 7.92 7.92 0 00-1.973.697 8.259 8.259 0 00-4.159 7.492 7.744 7.744 0 009.988 6.767 7.672 7.672 0 004.61-3.854.496.496 0 01.33-.27l7.118-1.297a3.216 3.216 0 013.228 1.282A27.29 27.29 0 0081.13 75.05a3.236 3.236 0 011.81 3.031l-.16 5.085a.431.431 0 01-.197.334 7.6 7.6 0 00-1.194 11.298 7.632 7.632 0 006.122 2.456 6.09 6.09 0 00.88-.12 8.295 8.295 0 005.796-5 7.653 7.653 0 00-1.114-7.03.467.467 0 01-.098-.387l1.375-4.926a3.227 3.227 0 012.628-2.352 26.831 26.831 0 003.992-.898 26.94 26.94 0 007.912-3.956 3.12 3.12 0 011.193-.528 3.28 3.28 0 012.376.412l4.402 2.661a.183.183 0 01.071.138 6.855 6.855 0 005.66 6.025 6.858 6.858 0 007.344-3.796 6.7 6.7 0 00-.711-7.099 6.868 6.868 0 00-6.424-2.654.137.137 0 01-.118-.038l-3.66-3.658a3.217 3.217 0 01-.753-3.468 27.006 27.006 0 001.914-11.283 3.244 3.244 0 011.942-3.063l2.331-1.04a.884.884 0 01.149-.05.873.873 0 01.591.099 8.735 8.735 0 0010.107-1.257 8.733 8.733 0 001.662-10.726l.002-.007z" fill="#54A0FF"/><path d="M102.496 47.537a4.596 4.596 0 100-9.19 4.596 4.596 0 000 9.19zm-1.776 19.467a3.718 3.718 0 10.001-7.435 3.718 3.718 0 00-.001 7.435zm-24.079-9.425a3.254 3.254 0 100-6.509 3.254 3.254 0 000 6.509zm13.648-1.719a2.648 2.648 0 100-5.295 2.648 2.648 0 000 5.296zm-4.857-15.366a2.583 2.583 0 100-5.166 2.583 2.583 0 000 5.166z" fill="#5C5C5C"/><path d="M141.34 31.579a13.651 13.651 0 00-14.773-6.685 13.72 13.72 0 00-8.278 5.316l-.736.134a32.458 32.458 0 00-10.151-7.984l-.028-2.737A12.024 12.024 0 00102.849.995a12.02 12.02 0 00-7.242-.742 11.813 11.813 0 00-8.693 7.458 11.977 11.977 0 00.533 9.747l-.475 2.027a31.994 31.994 0 00-3.564.875 31.915 31.915 0 00-8.3 3.941l-1.783-1.034a12.334 12.334 0 00-22.867-1.226 12.856 12.856 0 002.138 13.554 12.384 12.384 0 008.387 3.939l1.338 1.303a32.078 32.078 0 00-1.679 8.88l-3.807 1.69a12.75 12.75 0 00-6.506-.339c-1.118.237-2.2.619-3.219 1.137a13.294 13.294 0 00-6.851 12.408 12.758 12.758 0 0016.46 11.114c2.5-.763 4.703-2.28 6.306-4.344l4.092-.747A32.335 32.335 0 0077.89 79.79l-.06 1.984a12.62 12.62 0 009.966 21.255 11.055 11.055 0 001.62-.223 13.296 13.296 0 009.526-8.314 12.703 12.703 0 00-.601-9.584l.541-1.944c.261-.049.52-.1.78-.154a34.345 34.345 0 002.787-.72 31.875 31.875 0 008.374-3.99l1.678 1.015a11.874 11.874 0 0016.829 6.64 11.873 11.873 0 003.855-17.676 16.922 16.922 0 00-9.831-6.036 31.884 31.884 0 001.865-10.611 13.769 13.769 0 008.2.03 13.75 13.75 0 007.92-19.895l.002.012zm-9.888 13.505a7.047 7.047 0 01-5.46-.548 2.536 2.536 0 00-1.734-.266 2.497 2.497 0 00-.489.158l-2.329 1.039a4.908 4.908 0 00-2.931 4.663 25.504 25.504 0 01-1.796 10.592 4.906 4.906 0 001.114 5.271l3.669 3.669a1.816 1.816 0 001.529.51 5.212 5.212 0 014.872 2.022 5.044 5.044 0 01.533 5.35 5.191 5.191 0 01-8.462 1.325 5.19 5.19 0 01-1.381-2.997 1.829 1.829 0 00-.867-1.386l-4.402-2.662a4.968 4.968 0 00-3.584-.617 4.784 4.784 0 00-1.832.81 25.303 25.303 0 01-9.611 4.278c-.517.107-1.037.198-1.56.274-.099.016-.197.031-.295.054a4.905 4.905 0 00-3.702 3.504l-1.377 4.925a2.119 2.119 0 00.372 1.842 5.936 5.936 0 01.867 5.494 6.584 6.584 0 01-4.56 3.896c-.21.044-.422.073-.636.087a5.928 5.928 0 01-3.851-10.737 2.101 2.101 0 00.891-1.64l.174-5.102a4.904 4.904 0 00-2.76-4.592 25.608 25.608 0 01-9.954-8.47 4.89 4.89 0 00-4.894-1.963l-7.11 1.295h-.054a2.17 2.17 0 00-1.473 1.143 6.056 6.056 0 01-6.711 3.149 6.07 6.07 0 01-4.73-5.44 6.629 6.629 0 013.252-5.853 6.271 6.271 0 011.56-.553 6.057 6.057 0 014.163.624 2.135 2.135 0 001.886.082l6.725-2.986a4.846 4.846 0 002.822-4.43 25.52 25.52 0 011.702-8.875 4.875 4.875 0 00-1.223-5.215l-3.609-3.477a1.962 1.962 0 00-1.672-.531 5.65 5.65 0 01-5.026-1.763 6.168 6.168 0 01-.978-6.154 5.644 5.644 0 0110.732 1.65 2.005 2.005 0 00.967 1.49l4.472 2.61a4.97 4.97 0 003.519.58 4.782 4.782 0 001.812-.8 25.312 25.312 0 019.569-4.235 26.44 26.44 0 011.56-.277 4.922 4.922 0 004.063-3.76l1.208-5.157a1.85 1.85 0 00-.379-1.605 5.33 5.33 0 01-.867-5.327 5.126 5.126 0 013.79-3.255c.188-.039.379-.068.57-.086a5.31 5.31 0 013.829 9.481 1.844 1.844 0 00-.711 1.48l.063 5.796a4.936 4.936 0 002.811 4.457 25.63 25.63 0 019.361 7.293 5.061 5.061 0 004.837 1.89l3.579-.646.067-.013a2.53 2.53 0 001.712-1.338 7.049 7.049 0 014.85-3.682c.311-.064.626-.11.943-.136a7.056 7.056 0 012.561 13.786l.004.005zm24.505 106.157h-16.472a10.03 10.03 0 01-10.03-10.03v-16.474a10.032 10.032 0 0110.03-10.03h16.472a10.029 10.029 0 0110.03 10.03v16.474a10.03 10.03 0 01-10.03 10.03zm-16.472-29.848a3.345 3.345 0 00-3.343 3.344v16.474a3.344 3.344 0 003.343 3.343h16.472a3.342 3.342 0 003.343-3.343v-16.474a3.342 3.342 0 00-3.343-3.344h-16.472zm16.472 81.669h-16.472a10.029 10.029 0 01-10.03-10.03v-16.474a10.03 10.03 0 0110.03-10.03h16.472a10.03 10.03 0 0110.03 10.03v16.474a10.03 10.03 0 01-10.03 10.03zm-16.472-29.847a3.344 3.344 0 00-3.343 3.343v16.474a3.342 3.342 0 003.343 3.344h16.472a3.343 3.343 0 003.343-3.344v-16.474a3.344 3.344 0 00-3.343-3.343h-16.472zm16.472 81.67h-16.472a10.03 10.03 0 01-10.03-10.03v-16.474a10.03 10.03 0 0110.03-10.03h16.472a10.03 10.03 0 0110.03 10.03v16.474a10.03 10.03 0 01-10.03 10.03zm-16.472-29.847a3.344 3.344 0 00-3.343 3.343v16.474a3.342 3.342 0 003.343 3.343h16.472a3.342 3.342 0 003.343-3.343v-16.474a3.342 3.342 0 00-3.343-3.343h-16.472z" fill="#5C5C5C"/></svg>