<svg width="178" height="228" fill="none" xmlns="http://www.w3.org/2000/svg"><path d="M147.843 67.316l-25.022-25.022-28.57 28.383 23.715 23.714c6.536 6.536 6.536 17.179 0 23.715l-39.213 39.213c-6.535 6.536-17.179 6.536-23.715 0l-32.864-32.678c-1.494-1.493-4.108-1.493-5.788 0l-1.868 1.868c-1.494 1.494-1.494 4.108 0 5.788l50.79 50.604a25.132 25.132 0 0035.666 0l46.869-46.869c18.859-19.046 18.859-49.857 0-68.716z" fill="#fff"/><path d="M175.656 22.68l-21.39-21.39-5.941 5.942 21.389 21.39 5.942-5.942z" fill="#54A0FF"/><path d="M83.048 192.611c-7.282 0-14.192-2.801-19.42-8.029l-50.603-50.604c-1.12-1.12-1.868-2.801-1.868-4.481 0-1.681.747-3.362 1.867-4.482l1.868-1.867c2.427-2.428 6.535-2.428 8.963 0l32.864 32.864c2.801 2.801 6.349 4.295 10.27 4.295 3.921 0 7.47-1.494 10.27-4.295l39.213-39.213c5.602-5.602 5.602-14.752 0-20.54l-23.9-23.901c-.374-.374-.748-1.12-.748-1.681 0-.56.187-1.12.747-1.68l28.57-28.57a2.367 2.367 0 013.361 0l25.021 25.021c19.98 19.98 19.98 52.285 0 72.078l-46.869 46.869c-5.228 5.415-12.137 8.216-19.606 8.216zm-63.675-66.662c-.373 0-.933.186-1.12.56l-1.867 1.867c-.374.374-.56.747-.56 1.121 0 .373.186.933.56 1.12l50.603 50.603a22.882 22.882 0 0016.246 6.723c6.162 0 11.764-2.428 16.245-6.723l46.682-46.869c18.113-18.112 18.113-47.429 0-65.541l-23.341-23.342-25.208 25.209 22.034 22.034c7.469 7.469 7.469 19.606 0 27.076L80.434 159c-3.548 3.548-8.403 5.602-13.445 5.602s-9.896-2.054-13.444-5.602l-33.051-32.678c-.187-.187-.747-.373-1.12-.373z" fill="#5C5C5C"/><path d="M152.511 3.081l-2.428 2.428c-.933.934-.933 2.614 0 3.548.934.933.934 2.614 0 3.548l-98.032 98.032c-.934.934-.934 2.615 0 3.548l10.643 10.644c.934.933 2.614.933 3.548 0l98.033-98.033c.933-.934 2.614-.934 3.548 0 .933.934 2.614.934 3.548 0l2.427-2.427c.934-.934.934-2.615 0-3.548L156.059 3.08a2.293 2.293 0 00-3.548 0z" fill="#fff"/><path opacity=".2" d="M171.557 26.796l2.428-2.428c.933-.933.933-2.614 0-3.548l-17.74-17.739c-.933-.934-2.614-.934-3.548 0L150.27 5.51c-.934.933-.934 2.614 0 3.547.934.934.934 2.615 0 3.548l-2.241 2.241 14.192 14.191 2.24-2.24c.934-.934 2.615-.934 3.548 0 .934.933 2.428.933 3.548 0z" fill="#5C5C5C"/><path d="M64.375 128.003c-1.307 0-2.428-.56-3.361-1.494L50.37 115.865c-1.867-1.867-1.867-5.041 0-6.909l98.033-98.032v-.187c-1.867-1.867-1.867-5.042 0-6.91l2.428-2.427c1.867-1.867 5.041-1.867 6.909 0l17.739 17.74c1.867 1.867 1.867 5.041 0 6.909l-2.428 2.427c-1.867 1.867-5.041 1.867-6.909 0h-.186L67.923 126.51c-.934.934-2.24 1.494-3.548 1.494zM154.378 4.575h-.186l-2.428 2.427v.187c1.867 1.867 1.867 5.042 0 6.909l-98.033 98.219v.187l10.83 10.83h.188l98.032-98.032c1.867-1.867 5.042-1.867 6.909 0h.187l2.427-2.428v-.186L154.378 4.575z" fill="#5C5C5C"/><path d="M153.071 41.547l-17.739-17.74c-.934-.933-2.614-.933-3.548 0L81.741 73.665c-.934.934-2.615.934-3.548 0-.934-.933-2.614-.933-3.548 0l-3.548 3.548c-.934.934-.934 2.614 0 3.548l25.022 25.022c.933.933 2.614.933 3.547 0l3.548-3.548c.934-.934.934-2.614 0-3.548-.933-.934-.933-2.614 0-3.548l2.428-2.427c.933-.934 2.614-.934 3.548 0l.747.747c.933.933 2.614.933 3.547 0l32.118-32.118c.933-.934.933-2.614 0-3.548l-.747-.747c-.934-.933-.934-2.614 0-3.547l8.403-8.403c.747-.934.747-2.428-.187-3.548z" fill="#54A0FF"/><path opacity=".2" d="M78.193 73.665c-.934-.934-2.614-.934-3.548 0l-3.548 3.548c-.934.933-.934 2.614 0 3.548l25.022 25.021c.933.934 2.614.934 3.547 0l3.548-3.548c.934-.933.934-2.614 0-3.547-.933-.934-.933-2.615 0-3.548l2.241-2.241L83.981 71.61l-2.24 2.24c-.934.934-2.615.934-3.548-.186z" fill="#5C5C5C"/><path d="M97.8 108.957c-1.308 0-2.428-.56-3.362-1.494L69.416 82.442c-.933-.934-1.493-2.054-1.493-3.362 0-1.307.56-2.427 1.493-3.36l3.548-3.549c1.868-1.867 5.042-1.867 6.91 0h.186l50.043-50.043c1.868-1.867 5.042-1.867 6.909 0l17.74 17.74c.933.933 1.493 2.053 1.493 3.36s-.56 2.428-1.493 3.361l-8.403 8.403v.187l.747.747c1.867 1.867 1.867 5.042 0 6.909l-32.118 32.304c-1.867 1.867-5.041 1.867-6.909 0l-.747-.747-1.867-1.68 1.681 1.68-2.428 2.428v.186c.934.934 1.494 2.054 1.494 3.361 0 1.308-.56 2.428-1.494 3.362l-3.548 3.547c-.746 1.121-2.054 1.681-3.36 1.681zM74.644 73.665l1.68 1.68-3.547 3.549v.186l25.021 25.022h.187l3.548-3.548v-.187c-.934-.933-1.494-2.054-1.494-3.36 0-1.308.56-2.428 1.494-3.362l2.427-2.427c1.868-1.868 5.042-1.868 6.909 0l.747.747h.187l31.931-32.305v-.186l-.561-.747c-1.867-1.867-1.867-5.042 0-6.91l8.403-8.402v-.187L133.838 25.49h-.187l-50.23 49.857c-1.867 1.867-5.042 1.867-6.909 0l-1.867-1.68z" fill="#5C5C5C"/><path d="M56.532 152.651c-.56 0-1.12-.187-1.68-.747l-29.877-29.877a2.367 2.367 0 010-3.361 2.366 2.366 0 013.361 0l29.877 29.877a2.367 2.367 0 010 3.361c-.56.56-1.12.747-1.68.747z" fill="#DEF0F0"/><path opacity=".2" d="M85.102 161.428c-10.27 0-20.727 6.162-24.649 16.619l4.855 4.855a25.134 25.134 0 0035.666 0l7.282-7.283c-4.481-8.776-13.258-14.191-23.154-14.191z" fill="#5C5C5C"/><path d="M64.748 221.181V187.57c0-22.034 30.25-28.009 38.653-7.656l16.993 41.267H64.748z" fill="#54A0FF"/><path d="M120.58 223.608c-.933 0-1.867-.561-2.24-1.494l-16.993-41.267c-4.108-9.897-13.257-11.951-19.98-10.644-6.535 1.307-14.378 6.722-14.378 17.366v33.611c0 1.307-1.12 2.241-2.24 2.241s-2.241-1.121-2.241-2.241v-33.611c0-12.698 9.15-20.167 18.112-22.034 8.963-1.867 20.354 1.68 25.209 13.444l16.992 41.267c.56 1.121 0 2.615-1.307 2.988-.373.374-.747.374-.934.374zm47.429-194.571c-.56 0-1.12-.187-1.68-.747L148.59 10.55a2.366 2.366 0 010-3.36 2.367 2.367 0 013.361 0l17.739 17.739a2.366 2.366 0 010 3.36c-.56.561-1.12.748-1.681.748zm-64.794 71.889c-.561 0-1.121-.186-1.681-.746L76.512 75.345a2.367 2.367 0 010-3.362 2.367 2.367 0 013.362 0l25.021 25.022a2.366 2.366 0 010 3.361c-.56.374-1.12.56-1.68.56zm-35.853 14.565c-.56 0-1.12-.186-1.68-.746l-8.963-8.963a2.368 2.368 0 010-3.362 2.368 2.368 0 013.361 0l8.963 8.963a2.368 2.368 0 010 3.362c-.56.56-1.12.746-1.68.746z" fill="#5C5C5C"/><path d="M84.915 198.586c5.569 0 10.083-4.514 10.083-10.083s-4.514-10.084-10.083-10.084-10.084 4.515-10.084 10.084 4.515 10.083 10.084 10.083z" fill="#EE5253"/><path opacity=".2" d="M129.357 96.632c-10.644 0-19.233-8.59-19.233-19.233 0-10.644 8.589-19.233 19.233-19.233 10.643 0 19.233 8.59 19.233 19.233 0 10.644-8.776 19.233-19.233 19.233z" fill="#5C5C5C"/><path d="M129.356 90.657c7.219 0 13.071-5.852 13.071-13.071 0-7.22-5.852-13.071-13.071-13.071-7.219 0-13.071 5.852-13.071 13.07 0 7.22 5.852 13.072 13.071 13.072z" fill="#EE5253"/><path d="M129.357 93.084a15.46 15.46 0 01-15.499-15.498 15.46 15.46 0 0115.499-15.499 15.46 15.46 0 0115.498 15.499c0 8.59-7.095 15.498-15.498 15.498zm0-26.328c-5.976 0-10.831 4.855-10.831 10.83s4.855 10.83 10.831 10.83c5.975 0 10.83-4.855 10.83-10.83s-5.042-10.83-10.83-10.83zM84.915 200.827c-6.91 0-12.511-5.602-12.511-12.511 0-6.909 5.602-12.511 12.51-12.511 6.91 0 12.512 5.602 12.512 12.511 0 6.909-5.602 12.511-12.511 12.511zm0-20.167c-4.295 0-7.843 3.548-7.843 7.843s3.548 7.842 7.843 7.842 7.842-3.547 7.842-7.842-3.547-7.843-7.842-7.843z" fill="#5C5C5C"/><path d="M46.822 181.594l-37.72-37.346c-1.493-1.494-3.92-1.494-5.228 0l-.373.374c-1.494 1.494-1.494 3.921 0 5.228l37.72 37.346c1.493 1.494 3.92 1.494 5.228 0l.373-.373c1.494-1.494 1.494-3.922 0-5.229z" fill="#F9E373"/><path d="M43.835 190.743c-1.68 0-3.175-.56-4.295-1.68L1.82 151.717c-2.427-2.428-2.427-6.162 0-8.59l.374-.373c2.24-2.241 6.349-2.241 8.59 0L48.503 180.1c1.12 1.12 1.867 2.614 1.867 4.294 0 1.681-.56 3.175-1.68 4.295l-.374.374c-1.307.933-2.988 1.68-4.481 1.68zM6.489 145.368a1.43 1.43 0 00-.934.373l-.373.374c-.56.56-.56 1.494 0 2.054L42.9 185.515c.187.186.56.373.934.373.373 0 .746-.187.933-.373l.374-.374c.186-.186.373-.56.373-.933a1.43 1.43 0 00-.373-.934l-37.72-37.346a1.028 1.028 0 00-.933-.56z" fill="#5C5C5C"/><path d="M62.88 200.826H35.059a12.113 12.113 0 01-12.137-12.137v-17.366c0-1.307 1.12-2.24 2.24-2.24s2.241 1.12 2.241 2.24v17.366c0 4.108 3.361 7.469 7.47 7.469H62.88c1.307 0 2.24 1.121 2.24 2.241s-.933 2.427-2.24 2.427z" fill="#5C5C5C"/><path d="M171.931 225.288H7.982a3.745 3.745 0 01-3.734-3.734v-6.723a3.745 3.745 0 013.734-3.734h163.949a3.745 3.745 0 013.734 3.734v6.723a3.745 3.745 0 01-3.734 3.734z" fill="#54A0FF"/><path d="M171.931 227.716H7.983c-3.362 0-5.976-2.801-5.976-5.975v-6.722c0-3.361 2.801-5.976 5.976-5.976H171.93c3.361 0 5.975 2.801 5.975 5.976v6.722c0 3.174-2.614 5.975-5.975 5.975zM7.983 213.525c-.747 0-1.494.56-1.494 1.494v6.722c0 .747.56 1.494 1.494 1.494H171.93c.747 0 1.493-.56 1.493-1.494v-6.722c0-.747-.56-1.494-1.493-1.494H7.983zM129.356 79.827a2.24 2.24 0 100-4.481 2.24 2.24 0 000 4.481zM84.915 190.744a2.241 2.241 0 10-.001-4.483 2.241 2.241 0 000 4.483z" fill="#5C5C5C"/></svg>