<svg width="182" height="230" fill="none" xmlns="http://www.w3.org/2000/svg"><path d="M178.807 21.036V208.86c0 10.331-8.452 18.783-18.782 18.783H21.036c-10.33 0-18.782-8.452-18.782-18.783V21.036c0-10.33 8.452-18.782 18.782-18.782h138.989c10.33 0 18.782 8.452 18.782 18.782z" fill="#fff"/><path d="M78.322 128.095c28.526 0 51.651-23.125 51.651-51.651 0-28.526-23.125-51.651-51.65-51.651-28.527 0-51.652 23.125-51.652 51.651 0 28.526 23.125 51.651 51.651 51.651z" fill="#fff"/><path d="M78.322 130.349c-29.864 0-54.093-24.229-54.093-54.093 0-29.864 24.23-54.093 54.093-54.093 29.864 0 54.093 24.229 54.093 54.093 0 29.864-24.229 54.093-54.093 54.093zm0-103.303c-27.234 0-49.397 22.163-49.397 49.398 0 27.234 22.163 49.397 49.397 49.397 27.234 0 49.397-22.163 49.397-49.397 0-27.235-22.163-49.398-49.397-49.398z" fill="#5C5C5C"/><path d="M114.384 63.86H92.409c-.752 0-1.503-.751-1.503-1.502V40.382c0-.751-.751-1.502-1.502-1.502H67.24c-.752 0-1.503.75-1.503 1.502v21.976c0 .75-.751 1.502-1.503 1.502H42.26c-.751 0-1.502.751-1.502 1.503v21.975c0 .751.75 1.503 1.502 1.503h21.975c.752 0 1.503.75 1.503 1.502v21.975c0 .752.751 1.503 1.502 1.503h21.976c.751 0 1.502-.751 1.502-1.503V90.531c0-.751.752-1.503 1.503-1.503h21.975c.752 0 1.503-.75 1.503-1.502V65.363c.188-.752-.564-1.503-1.315-1.503z" fill="#EE5253"/><path d="M89.404 116.45H67.24a3.767 3.767 0 01-3.757-3.756V91.282H42.26a3.768 3.768 0 01-3.756-3.757V65.362a3.768 3.768 0 013.756-3.756h21.224V40.382a3.767 3.767 0 013.757-3.756h21.975a3.767 3.767 0 013.756 3.756v21.224h21.224a3.768 3.768 0 013.757 3.756v21.976a3.768 3.768 0 01-3.757 3.756H93.16v21.224c0 2.254-1.69 4.132-3.756 4.132zm-21.224-4.883h20.285V90.531c0-2.066 1.69-3.945 3.944-3.945h21.224V66.302H92.409c-2.066 0-3.944-1.69-3.944-3.945V41.321H68.18v21.036c0 2.066-1.69 3.945-3.945 3.945H43.2v20.284h21.036c2.067 0 3.945 1.69 3.945 3.945v21.036z" fill="#5C5C5C"/><path d="M150.634 58.601h28.173V21.036c0-10.33-8.452-18.782-18.782-18.782h-9.391v56.347z" fill="#61BDA7"/><path d="M178.807 60.855h-28.173c-1.315 0-2.254-1.127-2.254-2.254V2.254C148.38.939 149.507 0 150.634 0h9.391c11.645 0 21.036 9.391 21.036 21.036v37.565c0 1.315-.939 2.254-2.254 2.254zm-25.919-4.508h23.478v-35.31c0-9.016-7.325-16.53-16.529-16.53H152.7v51.84h.188z" fill="#5C5C5C"/><path opacity=".2" d="M178.807 58.601V35.123c-5.071-4.132-11.645-6.574-18.782-6.574h-3.756v30.052h22.538z" fill="#5C5C5C"/><path d="M150.634 96.166h28.173V58.6c0-10.33-8.452-18.782-18.782-18.782h-9.391v56.347z" fill="#B573A4"/><path d="M178.807 98.42h-28.173c-1.315 0-2.254-1.128-2.254-2.255V39.82c0-1.315 1.127-2.254 2.254-2.254h9.391c11.645 0 21.036 9.39 21.036 21.036v37.564c0 1.315-.939 2.254-2.254 2.254zm-25.919-4.508h23.478V58.6c0-9.016-7.325-16.529-16.529-16.529H152.7v51.84h.188z" fill="#5C5C5C"/><path opacity=".2" d="M178.807 72.688c-5.071-4.133-11.645-6.574-18.782-6.574h-3.756v30.051h22.538V72.688z" fill="#5C5C5C"/><path d="M150.634 124.339h28.173V96.166c0-10.33-8.452-18.783-18.782-18.783h-9.391v46.956z" fill="#54A0FF"/><path opacity=".2" d="M178.807 118.704h-22.538V2.254h-5.635V124.34h28.173v-5.635z" fill="#5C5C5C"/><path d="M178.807 126.593h-28.173c-1.315 0-2.254-1.127-2.254-2.254V77.383c0-1.314 1.127-2.254 2.254-2.254h9.391c11.645 0 21.036 9.391 21.036 21.037v28.173c0 1.315-.939 2.254-2.254 2.254zm-25.919-4.508h23.478v-25.92c0-9.015-7.325-16.528-16.529-16.528H152.7v42.448h.188z" fill="#5C5C5C"/><path d="M160.025 229.895H21.036C9.391 229.895 0 220.504 0 208.859V21.036C0 9.391 9.391 0 21.036 0h138.989c11.645 0 21.036 9.391 21.036 21.036V208.86c0 11.645-9.391 21.036-21.036 21.036zM21.036 4.508c-9.015 0-16.528 7.325-16.528 16.528V208.86c0 9.016 7.325 16.528 16.528 16.528h138.989c9.016 0 16.529-7.325 16.529-16.528V21.036c0-9.015-7.326-16.528-16.529-16.528H21.036z" fill="#5C5C5C"/><path d="M129.973 192.33H28.549c-1.315 0-2.254-1.126-2.254-2.253 0-1.127 1.127-2.254 2.254-2.254h101.424c1.315 0 2.254 1.127 2.254 2.254s-.939 2.253-2.254 2.253zm0-18.782H28.549c-1.315 0-2.254-1.127-2.254-2.254s1.127-2.253 2.254-2.253h101.424c1.315 0 2.254 1.126 2.254 2.253 0 1.127-.939 2.254-2.254 2.254zm0-18.782H28.549c-1.315 0-2.254-1.127-2.254-2.254s1.127-2.254 2.254-2.254h101.424c1.315 0 2.254 1.127 2.254 2.254s-.939 2.254-2.254 2.254z" fill="#5C5C5C"/></svg>