<svg width="189" height="151" fill="none" xmlns="http://www.w3.org/2000/svg"><path d="M103.453 71.103a9.294 9.294 0 100-18.587 9.294 9.294 0 000 18.587z" fill="#FFD578" stroke="#54596E" stroke-width="2" stroke-linecap="round" stroke-linejoin="round"/><path d="M98.9 115.619H22.011C10.952 115.619 2 123.611 2 133.463v13.134h114.619v-15.179c0-8.736-7.93-15.799-17.72-15.799z" fill="#54A0FF" stroke="#5C5C5C" stroke-width="3" stroke-miterlimit="10"/><path d="M17.489 69.152a9.293 9.293 0 100-18.587 9.293 9.293 0 000 18.587z" fill="#fff" stroke="#fff" stroke-width="2" stroke-linecap="round" stroke-linejoin="round"/><path d="M101.13 61.036l2.323-27.137a32.552 32.552 0 00-19.805-30.3A32.558 32.558 0 0071.205 1H47.414a32.558 32.558 0 00-32.248 32.868l2.323 27.168" fill="#5C5C5C"/><path d="M101.13 61.036l2.323-27.137a32.552 32.552 0 00-19.805-30.3A32.558 32.558 0 0071.205 1H47.414a32.558 32.558 0 00-32.248 32.868l2.323 27.168" stroke="#5C5C5C" stroke-width="2" stroke-linecap="round" stroke-linejoin="round"/><path d="M45.37 103.63h27.88v12.794a11.617 11.617 0 01-11.617 11.586h-4.647a11.616 11.616 0 01-11.617-11.617V103.63z" fill="#fff" stroke="#5C5C5C" stroke-width="2" stroke-linecap="round" stroke-linejoin="round"/><path d="M17.989 42.264c0-2.832.052-4.977.186-6.568.135-1.61.35-2.583.636-3.124.136-.26.27-.385.387-.447.114-.06.263-.09.487-.057.484.07 1.15.401 2.09.973.396.24.826.515 1.294.813 3.898 2.485 10.38 6.617 20.844 6.617 5.849 0 12.366-1.286 18.82-2.844 2.307-.557 4.603-1.148 6.86-1.728 4.082-1.05 8.036-2.068 11.704-2.795 5.707-1.13 10.565-1.521 13.978-.294 1.685.605 3.008 1.602 3.918 3.104.915 1.51 1.437 3.574 1.437 6.35v19.008a55.975 55.975 0 01-12.71 32.934c-6.014 7.289-16.944 11.62-28.61 11.62-11.664 0-22.534-4.36-28.611-11.622a55.974 55.974 0 01-12.71-32.932V42.264z" fill="#fff" stroke="#5C5C5C"/><path d="M175.477 31.451C174.083 11.069 153.793 1 132.108 1s-41.975 10.068-43.37 30.451v65.581h86.739v-65.58z" fill="#5C5C5C" stroke="#5C5C5C" stroke-width="2" stroke-linecap="round" stroke-linejoin="round"/><path d="M77.445 147a2 2 0 002 2h105.326a2 2 0 002-2v-16.511c0-9.628-9.168-16.87-19.72-16.87H99.457c-11.82 0-22.012 8.077-22.012 18.79V147z" fill="#EE5253" stroke="#5C5C5C" stroke-width="4" stroke-linecap="round" stroke-linejoin="round"/><path d="M122.815 100.533h18.586v16.263a9.294 9.294 0 11-18.586 0v-16.263z" fill="#fff" stroke="#5C5C5C" stroke-width="2" stroke-linecap="round" stroke-linejoin="round"/><path d="M169.282 140.401v6.196m-74.348-6.196v6.196" stroke="#5C5C5C" stroke-width="2" stroke-linecap="square" stroke-linejoin="round"/><path d="M166.184 69.152a9.293 9.293 0 009.293-9.294 9.293 9.293 0 00-9.293-9.293 9.293 9.293 0 00-9.293 9.293 9.293 9.293 0 009.293 9.294zm-68.152 0a9.294 9.294 0 100-18.587 9.294 9.294 0 000 18.587z" fill="#fff"/><path d="M98.532 72.006V41.023a9.63 9.63 0 019.531-9.66l5.599 1.592h.001a67.011 67.011 0 0036.891 0s0 0 0 0l5.599-1.591a9.63 9.63 0 019.531 9.63v30.981a33.583 33.583 0 01-9.736 23.92 33.572 33.572 0 01-23.84 9.931 33.565 33.565 0 01-23.828-9.92 33.578 33.578 0 01-9.748-23.9z" fill="#fff" stroke="#5C5C5C"/><path d="M132.108 139.255v-13.166" stroke="#fff" stroke-width="2" stroke-linecap="round" stroke-linejoin="round"/><path d="M17.489 140.401v6.196" stroke="#5C5C5C" stroke-width="2" stroke-linecap="square" stroke-linejoin="round"/></svg>