<svg width="186" height="175" fill="none" xmlns="http://www.w3.org/2000/svg"><path d="M3 68.535L80.638 4.078l77.3 64.457m-18.878 3.943v87.247H21.878V72.478" stroke="#5C5C5C" stroke-width="5.76" stroke-miterlimit="10" stroke-linecap="round" stroke-linejoin="round"/><path d="M111.959 31.764V3h23.898v45.517l-23.898-16.753z" stroke="#5C5C5C" stroke-width="4.1" stroke-miterlimit="10" stroke-linecap="round" stroke-linejoin="round"/><path d="M74.752 173.583c7.406 0 13.41-6.053 13.41-13.519s-6.004-13.518-13.41-13.518c-7.406 0-13.41 6.052-13.41 13.518 0 7.466 6.004 13.519 13.41 13.519z" fill="#898288"/><path d="M74.752 175c-8.177 0-14.827-6.65-14.827-14.935 0-8.286 6.65-14.936 14.827-14.936 8.176 0 14.826 6.65 14.826 14.936 0 8.285-6.65 14.935-14.826 14.935zm0-27.146c-6.65 0-12.101 5.451-12.101 12.211 0 6.759 5.45 12.21 12.1 12.21 6.651 0 12.102-5.451 12.102-12.21 0-6.76-5.451-12.211-12.101-12.211z" fill="#5C5C5C"/><path d="M74.752 168.349c-4.47 0-8.177-3.706-8.177-8.285 0-4.579 3.707-8.286 8.177-8.286s8.176 3.707 8.176 8.286-3.598 8.285-8.176 8.285z" fill="#F0F1EE"/><path d="M72.68 158.647a.763.763 0 10.001-1.525.763.763 0 000 1.525zm0 4.361a.763.763 0 10.001-1.525.763.763 0 000 1.525zm4.252 0a.763.763 0 100-1.525.763.763 0 000 1.525zm0-4.361a.763.763 0 100-1.525.763.763 0 000 1.525z" fill="#2D2F2E"/><path d="M184.098 89.31c0-4.142-3.271-7.413-7.413-7.413h-83.51c-4.142 0-5.668 3.49-7.412 7.305L72.57 118.419c-.654 1.744-1.962 3.052-3.597 3.816l-11.447 5.451c-2.617 1.308-4.252 3.924-4.252 6.759v21.258h4.143c1.962-7.849 8.94-13.627 17.334-13.627 9.811 0 17.879 8.068 17.879 17.988v.109h45.788v-.109c0-9.92 8.067-17.988 17.879-17.988 9.049 0 16.462 6.759 17.661 15.59h2.617c4.142 0 7.413-3.271 7.413-7.413l.109-60.942zm-84.054 28.455c0 .872-.763 1.635-1.635 1.635h-16.68c-1.09 0-1.744-1.09-1.417-2.071 2.616-6.432 9.157-20.932 11.12-25.62.218-.654.872-.981 1.526-.981h5.45c.873 0 1.636.763 1.636 1.635v25.402z" fill="#fff"/><path d="M161.204 98.141h-7.958c-.328 0-.546-.218-.546-.545v-7.958c0-.327-.218-.545-.545-.545h-7.958c-.327 0-.545.218-.545.545v7.958c0 .327-.218.545-.545.545h-8.068c-.327 0-.545.218-.545.545v7.959c0 .327.218.545.545.545h7.959c.327 0 .545.218.545.545v7.958c0 .328.218.546.545.546h7.958c.327 0 .545-.218.545-.546v-7.958c0-.327.218-.545.546-.545h7.958c.327 0 .545-.218.545-.545v-7.959c.109-.218-.109-.545-.436-.545z" fill="#EE5253"/><path d="M152.155 117.656h-7.958a1.954 1.954 0 01-1.962-1.962v-7.196h-7.196a1.954 1.954 0 01-1.962-1.962v-7.959c0-1.09.872-1.962 1.962-1.962h7.196V89.42c0-1.09.872-1.963 1.962-1.963h7.958c1.09 0 1.963.873 1.963 1.963v7.195h7.195c1.09 0 1.962.872 1.962 1.963v7.958c0 1.09-.872 1.962-1.962 1.962h-7.195v7.196c-.109 1.199-.982 1.962-1.963 1.962zm-7.195-2.617h6.323v-7.195c0-1.09.872-1.962 1.962-1.962h7.196v-6.323h-7.196a1.954 1.954 0 01-1.962-1.963v-7.195h-6.323v7.195c0 1.09-.872 1.963-1.962 1.963h-7.196v6.323h7.196c1.09 0 1.962.872 1.962 1.962v7.195z" fill="#5C5C5C"/><path d="M138.528 161.591H92.74c-.327 0-.763-.109-.981-.436-.218-.218-.436-.655-.436-.982v-.109c0-9.157-7.413-16.571-16.462-16.571-7.522 0-14.173 5.124-16.026 12.647-.218.654-.763 1.09-1.417.981h-4.034c-.763 0-1.308-.654-1.308-1.308v-21.259c0-3.38 1.962-6.432 5.015-7.959l11.447-5.45c1.308-.655 2.398-1.745 2.943-3.162l13.3-29.217c1.854-4.034 3.707-8.177 8.613-8.177h83.509c4.797 0 8.721 3.925 8.721 8.722v60.942c0 2.398-.872 4.578-2.616 6.214-1.635 1.635-3.816 2.616-6.214 2.616h-2.617c-.654 0-1.308-.545-1.308-1.199-1.09-8.176-8.176-14.391-16.353-14.391-9.048 0-16.462 7.414-16.462 16.462v.327c-.218.655-.763 1.309-1.526 1.309zm-44.48-2.726h43.172c.654-10.139 9.049-18.097 19.187-18.097 9.158 0 17.116 6.65 18.861 15.59h1.526a6.018 6.018 0 004.252-1.745 6.017 6.017 0 001.744-4.251V89.42a5.979 5.979 0 00-5.996-5.996H93.285c-3.052 0-4.36 2.507-6.105 6.432l-13.41 29.108a8.134 8.134 0 01-4.251 4.47l-11.447 5.451c-2.071.981-3.489 3.161-3.489 5.451v19.95h1.854c2.507-8.067 9.92-13.627 18.315-13.627 10.248.109 18.642 8.067 19.296 18.206zm4.361-38.048h-16.68c-.981 0-1.853-.436-2.398-1.308-.545-.763-.654-1.744-.218-2.616 1.417-3.489 4.033-9.485 6.323-14.718 1.962-4.47 3.815-8.83 4.688-10.902a2.97 2.97 0 012.725-1.853H98.3a3.048 3.048 0 013.053 3.052v25.511c0 1.417-1.309 2.834-2.944 2.834zm-5.45-28.78c-.11 0-.219.108-.219.108-.872 2.18-2.725 6.433-4.797 11.011-2.29 5.233-4.906 11.229-6.323 14.718v.109h16.79c.11 0 .218-.109.218-.218v-25.51a.234.234 0 00-.218-.219h-5.45z" fill="#5C5C5C"/><path d="M156.407 173.583c7.406 0 13.41-6.053 13.41-13.519s-6.004-13.518-13.41-13.518c-7.406 0-13.409 6.052-13.409 13.518 0 7.466 6.003 13.519 13.409 13.519z" fill="#898288"/><path d="M156.407 175c-8.176 0-14.827-6.65-14.827-14.935 0-8.286 6.651-14.936 14.827-14.936 8.177 0 14.827 6.65 14.827 14.936 0 8.285-6.759 14.935-14.827 14.935zm0-27.146c-6.65 0-12.101 5.451-12.101 12.211 0 6.759 5.451 12.21 12.101 12.21 6.65 0 12.101-5.451 12.101-12.21 0-6.76-5.451-12.211-12.101-12.211z" fill="#5C5C5C"/><path d="M156.407 151.888c-4.47 0-8.176 3.707-8.176 8.286 0 4.578 3.706 8.285 8.176 8.285 4.47 0 8.177-3.707 8.177-8.285 0-4.579-3.707-8.286-8.177-8.286z" fill="#F0F1EE"/><path d="M74.752 169.767c-5.233 0-9.594-4.36-9.594-9.593s4.252-9.594 9.594-9.594 9.594 4.361 9.594 9.594-4.252 9.593-9.594 9.593zm0-16.57c-3.707 0-6.76 3.052-6.76 6.868 0 3.815 3.053 6.868 6.76 6.868s6.759-3.053 6.759-6.868c0-3.816-2.944-6.868-6.76-6.868zm81.655 16.57c-5.233 0-9.594-4.36-9.594-9.593s4.252-9.594 9.594-9.594 9.594 4.361 9.594 9.594-4.361 9.593-9.594 9.593zm0-16.57c-3.706 0-6.759 3.052-6.759 6.868 0 3.815 3.053 6.868 6.759 6.868 3.707 0 6.759-3.053 6.759-6.868 0-3.816-3.052-6.868-6.759-6.868z" fill="#5C5C5C"/><path d="M154.227 158.647a.763.763 0 100-1.526.763.763 0 000 1.526zm0 4.361a.763.763 0 100-1.526.763.763 0 000 1.526zm4.252 0a.763.763 0 100-1.526.763.763 0 000 1.526zm0-4.361a.763.763 0 100-1.526.763.763 0 000 1.526z" fill="#2D2F2E"/><path d="M63.305 141.095a1.635 1.635 0 100-3.27 1.635 1.635 0 000 3.27zm36.739 12.21c-.763 0-1.308-.654-1.308-1.309v-22.24c0-.763.654-1.308 1.308-1.308s1.308.654 1.308 1.308v22.131c0 .764-.545 1.418-1.308 1.418z" fill="#5C5C5C"/><path d="M184.098 123.652H66.139l-8.612 4.143a7.309 7.309 0 00-4.252 6.65v.109h130.823v-10.902z" fill="#EE5253"/><path opacity=".2" d="M184.098 89.31c0-4.142-3.271-7.413-7.413-7.413h-9.812c4.143 0 7.413 3.271 7.413 7.414v60.942c0 1.417-.436 2.725-1.09 3.815.436 1.09.654 2.29.872 3.598h2.617c4.142 0 7.413-3.271 7.413-7.413V89.311z" fill="#5C5C5C"/><path d="M184.098 135.862H53.275c-.763 0-1.308-.654-1.308-1.309 0-3.379 1.962-6.541 5.015-7.958l8.612-4.143c.218-.109.436-.109.545-.109h117.959c.763 0 1.308.654 1.308 1.308v10.902c0 .327-.109.655-.436.982-.327.327-.545.327-.872.327zm-129.297-2.726H182.79v-8.176H66.466l-8.394 4.033c-1.636.764-2.944 2.399-3.27 4.143z" fill="#5C5C5C"/><path d="M106.803 69.906h-2.943c-1.09 0-1.963.763-2.181 1.744l-1.308 6.541c-.218 1.308.763 2.617 2.181 2.617h5.56c1.417 0 2.398-1.309 2.18-2.617l-1.417-6.54c-.218-.982-1.091-1.745-2.072-1.745z" fill="#54A0FF"/><path opacity=".5" d="M103.751 69.906a2.23 2.23 0 00-2.181 1.744l-1.308 6.541c-.218 1.308.763 2.617 2.181 2.617h3.27c-1.417 0-2.398-1.309-2.18-2.617l1.308-6.54c.218-.982.981-1.636 1.962-1.745h-3.052z" fill="#fff"/><path d="M108.112 82.225h-5.56c-1.091 0-2.072-.436-2.726-1.309-.654-.872-.981-1.853-.763-2.943l1.308-6.541c.327-1.636 1.744-2.835 3.489-2.835h2.943c1.636 0 3.162 1.2 3.489 2.835l1.308 6.54c.218 1.091-.109 2.072-.763 2.944-.654.764-1.744 1.309-2.725 1.309zm-4.361-10.902c-.436 0-.763.327-.763.654l-1.309 6.54c-.109.328.109.546.218.655.109.11.327.327.655.327h5.56c.327 0 .545-.218.654-.327.109-.109.218-.327.218-.654l-1.309-6.541c-.109-.327-.436-.654-.763-.654h-3.161z" fill="#5C5C5C"/><path d="M113.563 81.134H96.992c-.763 0-1.309-.654-1.309-1.308s.655-1.308 1.309-1.308h16.462c.763 0 1.308.654 1.308 1.308s-.436 1.308-1.199 1.308z" fill="#5C5C5C"/></svg>